<?xml version="1.0" standalone="no"?>
<!DOCTYPE svg PUBLIC "-//W3C//DTD SVG 20010904//EN"
 "http://www.w3.org/TR/2001/REC-SVG-20010904/DTD/svg10.dtd">
<svg version="1.0" xmlns="http://www.w3.org/2000/svg"
 width="1024.000000pt" height="672.000000pt" viewBox="0 0 1024.000000 672.000000"
 preserveAspectRatio="xMidYMid meet">

<g transform="translate(0.000000,672.000000) scale(0.100000,-0.100000)"
fill="#000000" stroke="none">
<path d="M4530 3375 l0 -865 120 0 120 0 0 865 0 865 -120 0 -120 0 0 -865z"/>
<path d="M6075 4109 c-23 -5 -58 -23 -78 -40 -146 -120 -80 -357 105 -376 69
-7 119 9 169 54 160 145 15 411 -196 362z"/>
<path d="M8990 3790 l0 -150 -95 0 -95 0 0 -105 0 -105 94 0 95 0 3 -337 c4
-368 6 -380 65 -466 75 -108 245 -161 437 -137 50 7 97 17 104 22 8 7 12 41
12 104 l0 94 -123 0 c-149 0 -199 18 -232 85 -19 37 -20 60 -20 335 l0 295
168 3 167 2 0 105 0 105 -167 2 -168 3 -3 148 -3 147 -119 0 -120 0 0 -150z"/>
<path d="M1425 3408 c-65 -145 -140 -314 -168 -375 -27 -62 -53 -113 -57 -113
-3 0 -71 162 -151 360 l-144 360 -127 0 c-71 0 -128 -4 -128 -9 0 -5 64 -154
141 -332 78 -178 189 -434 248 -569 l107 -245 42 0 43 0 120 255 c66 140 143
305 172 365 28 61 54 114 57 118 4 4 40 -63 80 -150 41 -87 103 -219 138 -293
35 -74 82 -172 103 -218 l39 -83 41 3 41 3 87 200 c153 347 411 945 411 950 0
3 -58 5 -128 5 l-128 0 -142 -352 c-78 -194 -145 -354 -149 -355 -5 -2 -76
144 -158 324 -207 451 -182 407 -231 411 l-41 3 -118 -263z"/>
<path d="M2985 3664 c-230 -36 -424 -196 -490 -405 -30 -96 -34 -240 -10 -333
37 -141 143 -281 270 -358 292 -176 682 -68 839 232 49 93 69 171 69 270 1
101 -15 173 -55 255 -78 159 -208 269 -378 319 -56 17 -193 28 -245 20z m230
-256 c222 -116 265 -437 80 -607 -73 -67 -123 -86 -230 -86 -82 0 -97 3 -157
33 -252 124 -256 525 -6 653 68 35 88 39 178 35 68 -2 95 -8 135 -28z"/>
<path d="M7193 3660 c-221 -40 -413 -215 -468 -429 -19 -73 -21 -212 -4 -291
37 -181 187 -349 371 -418 180 -67 417 -41 571 63 67 45 97 71 97 82 0 7 -89
144 -104 161 -2 1 -33 -18 -69 -42 -96 -64 -152 -81 -272 -81 -88 0 -107 4
-161 28 -94 44 -172 135 -190 225 l-6 32 415 0 c322 0 418 3 424 13 13 22 16
208 3 266 -38 174 -163 312 -335 369 -72 24 -200 34 -272 22z m183 -215 c101
-30 176 -116 190 -219 l7 -46 -301 0 c-196 0 -303 4 -307 10 -11 17 50 134 89
173 85 85 207 116 322 82z"/>
<path d="M8245 3660 c-73 -13 -129 -35 -180 -70 -87 -60 -126 -139 -127 -257
-1 -156 82 -239 348 -349 186 -76 214 -98 214 -165 0 -47 -37 -93 -87 -110
-21 -7 -68 -10 -117 -7 -96 5 -162 34 -237 105 -26 25 -52 43 -56 41 -15 -6
-133 -135 -133 -145 0 -20 118 -122 176 -151 213 -108 475 -84 610 55 62 64
87 136 82 239 -5 95 -31 149 -100 209 -42 36 -196 115 -331 170 -90 36 -127
72 -127 120 0 82 44 109 169 103 92 -5 143 -24 210 -79 l35 -29 50 57 c85 94
83 90 45 129 -103 106 -287 162 -444 134z"/>
<path d="M4213 3635 c-52 -16 -123 -56 -168 -97 l-35 -30 0 66 0 66 -115 0
-115 0 0 -565 0 -565 119 0 120 0 3 343 c3 332 4 343 26 392 55 119 176 185
345 185 l37 0 0 104 c0 85 -3 105 -16 110 -28 11 -157 5 -201 -9z"/>
<path d="M5000 3398 c-118 -133 -215 -247 -215 -253 0 -7 108 -152 240 -323
l240 -312 143 0 c78 0 142 3 142 8 -1 4 -109 144 -240 312 -132 168 -240 308
-240 313 0 4 57 69 127 145 70 75 171 185 226 245 l99 107 -153 0 -154 -1
-215 -241z"/>
<path d="M5988 3607 c-129 -44 -221 -126 -285 -251 -57 -112 -63 -162 -63
-518 l0 -318 115 0 114 0 3 338 c3 324 4 339 25 378 49 91 150 150 245 142
100 -8 171 -60 217 -158 l26 -55 3 -322 3 -323 110 0 109 0 0 330 c0 357 -4
397 -53 500 -34 74 -133 179 -209 223 -104 60 -244 73 -360 34z"/>
</g>
</svg>
